<?xml version="1.0" encoding="UTF-8"?>
<svg width="128" height="88" version="1.1" viewBox="0 0 128 88" xmlns="http://www.w3.org/2000/svg"><g stroke-linejoin="round"><path d="m8 8h112v72h-112z" fill="none" stroke="#000" stroke-width="8"/><path d="m48 62.833h64" fill="none" stroke="#000" stroke-width="4.7607"/><path d="m54.471 52.554-10.176-30.144h3.504l7.68 22.992 7.248-22.944h3.312l-10.032 30.096zm16.512-0.192v-2.832h5.904v-24.24h-5.568v-2.832h14.832v2.832h-5.904v24.288h6.192v2.784zm22.704 0.048v-29.952h6.96q2.592 0 4.368 0.48t3.024 1.392q1.248 0.864 2.208 2.208 1.008 1.344 1.632 3.024 0.672 1.68 0.96 3.696 0.336 1.968 0.336 4.32-0.144 3.456-0.912 6.192t-2.304 4.656-3.984 2.976q-2.4 1.008-5.904 1.008zm3.168-2.64h3.072q3.456 0 5.616-1.392 2.208-1.392 3.264-4.08t1.008-6.528q0-3.936-0.96-6.72t-3.024-4.272q-2.016-1.488-5.376-1.488h-3.6z" stroke-width="4" aria-label="VID"/><path d="m20 20 16 16-16 16" fill="none" stroke="#000" stroke-linecap="round" stroke-width="4"/></g></svg>
